<svg xmlns="http://www.w3.org/2000/svg" width="63.707" height="65.202" viewBox="0 0 63.707 65.202"><defs><style>.a,.c{fill:#a7bfa2;}.a,.b,.c,.e,.g{stroke:#000;stroke-width:2px;}.a,.b{stroke-linecap:round;}.a{stroke-linejoin:round;}.b,.g{fill:#fff;}.b,.c,.e,.g{stroke-miterlimit:10;}.d,.f{opacity:0.2;}.e{fill:#f7d064;}</style></defs><g transform="translate(1.006 1)"><g transform="translate(12.442 49.545)"><path class="a" d="M447.423,415.984a19.2,19.2,0,0,0-36.77,0Z" transform="translate(-410.653 -402.327)"/><line class="b" y2="3.504" transform="translate(27.327 9.103)"/><line class="b" y2="3.504" transform="translate(9.126 9.103)"/></g><g transform="translate(0)"><path class="c" d="M585.017,242.011a14.063,14.063,0,0,1,8.947-4.643A2.817,2.817,0,0,1,597,240.624l-.675,4.282a21.4,21.4,0,0,1-15.94,17.422Z" transform="translate(-535.342 -219.496)"/><path class="c" d="M362.526,262.327a21.4,21.4,0,0,1-15.94-17.422l-.675-4.282a2.817,2.817,0,0,1,3.036-3.256,14.063,14.063,0,0,1,8.947,4.643Z" transform="translate(-345.876 -219.496)"/><path class="d" d="M362.526,262.327a21.4,21.4,0,0,1-15.94-17.422l-.675-4.282a2.817,2.817,0,0,1,3.036-3.256,14.063,14.063,0,0,1,8.947,4.643Z" transform="translate(-345.876 -219.496)"/><path class="d" d="M585.017,242.011a14.063,14.063,0,0,1,8.947-4.643A2.817,2.817,0,0,1,597,240.624l-.675,4.282a21.4,21.4,0,0,1-15.94,17.422Z" transform="translate(-535.342 -219.496)"/><g transform="translate(7.798 6.472)"><circle class="c" cx="23.029" cy="23.029" r="23.029"/><circle class="c" cx="23.029" cy="23.029" r="23.029"/></g><path class="e" d="M556.478,295.8h-2.157a1.257,1.257,0,0,1-1.143-1.779l2.157-4.717a1.257,1.257,0,0,1,2.286,0l2.157,4.717a1.257,1.257,0,0,1-1.143,1.779Z" transform="translate(-513.268 -260.872)"/><path class="e" d="M428.573,295.8h-2.157a1.257,1.257,0,0,1-1.143-1.779l2.157-4.717a1.257,1.257,0,0,1,2.286,0l2.157,4.717a1.257,1.257,0,0,1-1.143,1.779Z" transform="translate(-409.93 -260.872)"/><g transform="translate(6.023 31.495)"><path class="c" d="M424.394,308.352c1.84,0,3.017,2.323,2.165,4.262-4.615,10.5-13.865,17.675-24.522,17.675s-19.9-7.17-24.521-17.674c-.852-1.939.326-4.262,2.165-4.262l13.9,2.94a40.881,40.881,0,0,0,16.918,0Z" transform="translate(-377.233 -308.352)"/></g><g transform="translate(34.871 19.412)"><line class="b" x1="7.24"/><line class="b" y2="3.937" transform="translate(1.626 0.725)"/></g><g transform="translate(19.569 19.412)"><line class="b" x2="7.24"/><line class="b" y2="3.937" transform="translate(5.614 0.725)"/></g><g class="f" transform="translate(6.643 6.409)"><path d="M408.057,223.608a22.974,22.974,0,0,1-2.311.115c-12.719,0-25.287-10.276-25.287-23,0-12.058,11.523-21.986,23.324-22.979-8.78,2.349-15.333,11.593-15.333,22.64C388.45,213.167,397.217,223.533,408.057,223.608Z" transform="translate(-380.46 -177.749)"/></g><path class="g" d="M495.4,150.645c0-.016.008-.031.011-.047.006-.032.011-.064.014-.1s.005-.043.007-.064,0-.054,0-.081,0-.054,0-.081,0-.043-.007-.065-.008-.064-.014-.1c0-.016-.008-.031-.011-.047-.009-.037-.018-.073-.031-.11,0-.007-.005-.014-.008-.021-.013-.035-.024-.071-.04-.106l-2.157-4.717a1.257,1.257,0,0,0-2.286,0l-2.157,4.717c-.016.035-.028.07-.04.106l-.008.021c-.012.036-.022.073-.031.11,0,.016-.008.031-.011.047-.006.032-.011.064-.014.1s-.005.043-.007.065,0,.054,0,.081,0,.054,0,.081,0,.043.007.064.008.064.014.1c0,.016.008.031.011.047.009.037.018.073.031.11l.008.021c.012.035.024.071.04.106l2.157,4.717a1.257,1.257,0,0,0,2.286,0l2.157-4.717c.016-.035.028-.07.04-.106,0-.007.006-.014.008-.021C495.377,150.718,495.387,150.682,495.4,150.645Z" transform="translate(-461.19 -144.38)"/></g></g></svg>